<svg class="diagram-root" style="background: #f5f6f6" xmlns="http://www.w3.org/2000/svg" xmlns:xlink="http://www.w3.org/1999/xlink"><style>.diagram-root { font-family: "Helvetica Neue", sans-serif; font-size: 12px; } .t { overflow: visible; } .t-bg { y: 40; fill: #fff;   } .th { fill: #005aa0;   } .tht { fill: #fff; font-size: 14px;  } .tf { fill: #323c46; overflow: visible; } .tf.pk { fill: #005aa0; font-weight: bold; } .tf.fk { font-weight: bold; } .ty { fill: #adb1b5; font-weight: normal; text-anchor: end; } .r { fill: transparent; stroke: #c3c3c3; stroke-width: 1; } .l { stroke: 1; } .i { fill: #c2c7ce; stroke: #c2c7ce; } .i.ix { fill: #afb3b6; stroke: #000; } .fa { fill: transparent; overflow: visible; } .fa .bg.hover { fill: #f7f7f7; } .c { cy: 12; r: 4; stroke: #d2d2dc; fill: #d2d2dc; } .hr { fill: transparent; stroke: #323c46; stroke-opacity: 0.035; stroke-width: 13; } .dc { stroke: #fa5a3c; fill: #fa5a3c; } .x { stroke: white; stroke-width: 1; } .hl .th { fill: #1b9bff; } .hl .tht {  } .fhl .bg { fill: #e7f4ff; } .fhls .bg {  } .r.hl { stroke: #1b9bff; } .dim { opacity: 0.25; }</style><g class="drawing-wrapper" transform="translate(180.5, 136) scale(1,1)"><g class="rs"><path d="M 85.3 -49 m -1, 0 a 1,1 0 1,0 2,0 a 1,1 0 1,0 -2,0 M 85.3 -49 m -0.5, 0 a 0.5,0.5 0 1,0 1,0 a 0.5,0.5 0 1,0 -1,0  M85.3 -49 L85.3 -49 97.3 -49 M 85.3 -43 m -1, 0 a 1,1 0 1,0 2,0 a 1,1 0 1,0 -2,0 M 85.3 -43 m -0.5, 0 a 0.5,0.5 0 1,0 1,0 a 0.5,0.5 0 1,0 -1,0  M85.3 -43 L85.3 -43 92.3 -49 85.3 -55 M 85.3 -55 m -1, 0 a 1,1 0 1,0 2,0 a 1,1 0 1,0 -2,0 M 85.3 -55 m -0.5, 0 a 0.5,0.5 0 1,0 1,0 a 0.5,0.5 0 1,0 -1,0  M97.3 -49 Q 191.23 -49, 285.15 1 T 473 51 M 485 51 m -1, 0 a 1,1 0 1,0 2,0 a 1,1 0 1,0 -2,0 M 485 51 m -0.5, 0 a 0.5,0.5 0 1,0 1,0 a 0.5,0.5 0 1,0 -1,0  M485 51 L485 51 473 51 M479 57 L479 57 479 45" id="h72009307" class="r"></path><path d="M -88.75 76 m -1, 0 a 1,1 0 1,0 2,0 a 1,1 0 1,0 -2,0 M -88.75 76 m -0.5, 0 a 0.5,0.5 0 1,0 1,0 a 0.5,0.5 0 1,0 -1,0  M-88.75 76 L-88.75 76 -100.75 76 M -88.75 82 m -1, 0 a 1,1 0 1,0 2,0 a 1,1 0 1,0 -2,0 M -88.75 82 m -0.5, 0 a 0.5,0.5 0 1,0 1,0 a 0.5,0.5 0 1,0 -1,0  M-88.75 82 L-88.75 82 -95.75 76 -88.75 70 M -88.75 70 m -1, 0 a 1,1 0 1,0 2,0 a 1,1 0 1,0 -2,0 M -88.75 70 m -0.5, 0 a 0.5,0.5 0 1,0 1,0 a 0.5,0.5 0 1,0 -1,0  M-100.75 76 C -262.35 76, -220.5 219.5, -170.5 219.5 M -158.5 219.5 m -1, 0 a 1,1 0 1,0 2,0 a 1,1 0 1,0 -2,0 M -158.5 219.5 m -0.5, 0 a 0.5,0.5 0 1,0 1,0 a 0.5,0.5 0 1,0 -1,0  M-158.5 219.5 L-158.5 219.5 -170.5 219.5 M-164.5 225.5 L-164.5 225.5 -164.5 213.5" id="h1272262939" class="r"></path><path d="M 516.01 400 m -1, 0 a 1,1 0 1,0 2,0 a 1,1 0 1,0 -2,0 M 516.01 400 m -0.5, 0 a 0.5,0.5 0 1,0 1,0 a 0.5,0.5 0 1,0 -1,0  M516.01 400 L516.01 400 528.01 400 M 516.01 406 m -1, 0 a 1,1 0 1,0 2,0 a 1,1 0 1,0 -2,0 M 516.01 406 m -0.5, 0 a 0.5,0.5 0 1,0 1,0 a 0.5,0.5 0 1,0 -1,0  M516.01 406 L516.01 406 523.01 400 516.01 394 M 516.01 394 m -1, 0 a 1,1 0 1,0 2,0 a 1,1 0 1,0 -2,0 M 516.01 394 m -0.5, 0 a 0.5,0.5 0 1,0 1,0 a 0.5,0.5 0 1,0 -1,0  M528.01 400 C 708.6980000000001 400, 659.69 26, 609.69 26 M 597.69 26 m -1, 0 a 1,1 0 1,0 2,0 a 1,1 0 1,0 -2,0 M 597.69 26 m -0.5, 0 a 0.5,0.5 0 1,0 1,0 a 0.5,0.5 0 1,0 -1,0  M597.69 26 L597.69 26 609.69 26 M603.69 32 L603.69 32 603.69 20" id="h2926995509" class="r"></path><path d="M 301.7 433 m -1, 0 a 1,1 0 1,0 2,0 a 1,1 0 1,0 -2,0 M 301.7 433 m -0.5, 0 a 0.5,0.5 0 1,0 1,0 a 0.5,0.5 0 1,0 -1,0  M301.7 433 L301.7 433 313.7 433 M 301.7 439 m -1, 0 a 1,1 0 1,0 2,0 a 1,1 0 1,0 -2,0 M 301.7 439 m -0.5, 0 a 0.5,0.5 0 1,0 1,0 a 0.5,0.5 0 1,0 -1,0  M301.7 439 L301.7 439 308.7 433 301.7 427 M 301.7 427 m -1, 0 a 1,1 0 1,0 2,0 a 1,1 0 1,0 -2,0 M 301.7 427 m -0.5, 0 a 0.5,0.5 0 1,0 1,0 a 0.5,0.5 0 1,0 -1,0  M313.7 433 Q 332.28 433, 350.85 416.5 T 388 400 M 400 400 m -1, 0 a 1,1 0 1,0 2,0 a 1,1 0 1,0 -2,0 M 400 400 m -0.5, 0 a 0.5,0.5 0 1,0 1,0 a 0.5,0.5 0 1,0 -1,0  M400 400 L400 400 388 400 M394 406 L394 406 394 394" id="h2084686707" class="r"></path><path d="M 301.7 458 m -1, 0 a 1,1 0 1,0 2,0 a 1,1 0 1,0 -2,0 M 301.7 458 m -0.5, 0 a 0.5,0.5 0 1,0 1,0 a 0.5,0.5 0 1,0 -1,0  M301.7 458 L301.7 458 313.7 458 M 301.7 464 m -1, 0 a 1,1 0 1,0 2,0 a 1,1 0 1,0 -2,0 M 301.7 464 m -0.5, 0 a 0.5,0.5 0 1,0 1,0 a 0.5,0.5 0 1,0 -1,0  M301.7 464 L301.7 464 308.7 458 301.7 452 M 301.7 452 m -1, 0 a 1,1 0 1,0 2,0 a 1,1 0 1,0 -2,0 M 301.7 452 m -0.5, 0 a 0.5,0.5 0 1,0 1,0 a 0.5,0.5 0 1,0 -1,0  M313.7 458 Q 332.28 458, 350.85 429 T 388 400 M 400 400 m -1, 0 a 1,1 0 1,0 2,0 a 1,1 0 1,0 -2,0 M 400 400 m -0.5, 0 a 0.5,0.5 0 1,0 1,0 a 0.5,0.5 0 1,0 -1,0  M400 400 L400 400 388 400 M394 406 L394 406 394 394" id="h1386642455" class="r"></path><path d="M 181.71 246 m -1, 0 a 1,1 0 1,0 2,0 a 1,1 0 1,0 -2,0 M 181.71 246 m -0.5, 0 a 0.5,0.5 0 1,0 1,0 a 0.5,0.5 0 1,0 -1,0  M181.71 246 L181.71 246 193.71 246 M 181.71 252 m -1, 0 a 1,1 0 1,0 2,0 a 1,1 0 1,0 -2,0 M 181.71 252 m -0.5, 0 a 0.5,0.5 0 1,0 1,0 a 0.5,0.5 0 1,0 -1,0  M181.71 252 L181.71 252 188.71 246 181.71 240 M 181.71 240 m -1, 0 a 1,1 0 1,0 2,0 a 1,1 0 1,0 -2,0 M 181.71 240 m -0.5, 0 a 0.5,0.5 0 1,0 1,0 a 0.5,0.5 0 1,0 -1,0  M193.71 246 C 243.71 246, 301.55600000000004 -49, 97.3 -49 M 85.3 -49 m -1, 0 a 1,1 0 1,0 2,0 a 1,1 0 1,0 -2,0 M 85.3 -49 m -0.5, 0 a 0.5,0.5 0 1,0 1,0 a 0.5,0.5 0 1,0 -1,0  M85.3 -49 L85.3 -49 97.3 -49 M91.3 -43 L91.3 -43 91.3 -55" id="h3896696280" class="r"></path><path d="M 181.71 271 m -1, 0 a 1,1 0 1,0 2,0 a 1,1 0 1,0 -2,0 M 181.71 271 m -0.5, 0 a 0.5,0.5 0 1,0 1,0 a 0.5,0.5 0 1,0 -1,0  M181.71 271 L181.71 271 193.71 271 M 181.71 277 m -1, 0 a 1,1 0 1,0 2,0 a 1,1 0 1,0 -2,0 M 181.71 277 m -0.5, 0 a 0.5,0.5 0 1,0 1,0 a 0.5,0.5 0 1,0 -1,0  M181.71 277 L181.71 277 188.71 271 181.71 265 M 181.71 265 m -1, 0 a 1,1 0 1,0 2,0 a 1,1 0 1,0 -2,0 M 181.71 265 m -0.5, 0 a 0.5,0.5 0 1,0 1,0 a 0.5,0.5 0 1,0 -1,0  M193.71 271 Q 225.29 271, 256.86 243.5 T 320 216 M 332 216 m -1, 0 a 1,1 0 1,0 2,0 a 1,1 0 1,0 -2,0 M 332 216 m -0.5, 0 a 0.5,0.5 0 1,0 1,0 a 0.5,0.5 0 1,0 -1,0  M332 216 L332 216 320 216 M326 222 L326 222 326 210" id="h3716198009" class="r"></path></g><g class="hrs"></g><g class="ts"><svg width="174.05" height="200" x="-88.75" y="-106" id="h2744470858" class="t"><rect height="40" width="174.05" class="th"></rect><text x="13" y="25" class="tht">Film</text><rect height="160" width="174.05" class="t-bg"></rect><text x="13" y="61" class="tf pk">FilmID<tspan x="161.05" class="ty">int</tspan></text><path d="M7,14A2,2 0 0,1 5,12A2,2 0 0,1 7,10A2,2 0 0,1 9,12A2,2 0 0,1 7,14M12.65,10C11.83,7.67 9.61,6 7, 6A6, 6 0 0, 0 1, 12A6, 6 0 0, 0 7, 18C9.61, 18 11.83, 16.33 12.65, 14H17V18H21V14H23V10H12.65Z" class="i pk" transform="translate(128.376171875, 48) scale(0.65)"></path><text x="13" y="86" class="tf">Name<tspan x="161.05" class="ty">string</tspan></text><path d="M814.545 581.818v-23.273H535.273v-93.09h-46.546v93.09H209.455v139.637H256V605.09h232.727v93.09h46.546v-93.09H768v93.09h46.545V581.819zM674.91 465.455H349.091V139.636h325.818v325.819zM325.82 884.364H139.635V698.182h186.182v186.182z m279.272 0H418.909V698.182h186.182v186.182z m279.273 0H698.182V698.182h186.182v186.182zM395.636 418.909h232.728V186.182H395.636v232.727zM186.182 837.82h93.09v-93.092h-93.09v93.091z m279.273 0h93.09v-93.092h-93.09v93.091z m279.272 0h93.091v-93.092h-93.09v93.091z" class="i ix" transform="translate(116.70625000000001, 75) scale(0.014)"></path><text x="13" y="111" class="tf">Description<tspan x="161.05" class="ty">varchar(200)</tspan></text><text x="13" y="136" class="tf">ReleaseDate<tspan x="161.05" class="ty">date</tspan></text><text x="13" y="161" class="tf">Duration<tspan x="161.05" class="ty">int</tspan></text><text x="13" y="186" class="tf fk">RatingID<tspan x="161.05" class="ty">int</tspan></text></svg><svg width="112.69" height="125" x="485" y="-56" id="h3906576787" class="t"><rect height="40" width="112.69" class="th"></rect><text x="13" y="25" class="tht">Like</text><rect height="85" width="112.69" class="t-bg"></rect><text x="13" y="61" class="tf pk">LikeID<tspan x="99.69" class="ty">int</tspan></text><path d="M7,14A2,2 0 0,1 5,12A2,2 0 0,1 7,10A2,2 0 0,1 9,12A2,2 0 0,1 7,14M12.65,10C11.83,7.67 9.61,6 7, 6A6, 6 0 0, 0 1, 12A6, 6 0 0, 0 7, 18C9.61, 18 11.83, 16.33 12.65, 14H17V18H21V14H23V10H12.65Z" class="i pk" transform="translate(67.016171875, 48) scale(0.65)"></path><text x="13" y="86" class="tf fk">UserID<tspan x="99.69" class="ty">int</tspan></text><text x="13" y="111" class="tf fk">FilmID<tspan x="99.69" class="ty">int</tspan></text></svg><svg width="116.01" height="175" x="400" y="343" id="h1537667952" class="t"><rect height="40" width="116.01" class="th"></rect><text x="13" y="25" class="tht">User</text><rect height="135" width="116.01" class="t-bg"></rect><text x="13" y="61" class="tf pk">UserID<tspan x="103.01" class="ty">int</tspan></text><path d="M7,14A2,2 0 0,1 5,12A2,2 0 0,1 7,10A2,2 0 0,1 9,12A2,2 0 0,1 7,14M12.65,10C11.83,7.67 9.61,6 7, 6A6, 6 0 0, 0 1, 12A6, 6 0 0, 0 7, 18C9.61, 18 11.83, 16.33 12.65, 14H17V18H21V14H23V10H12.65Z" class="i pk" transform="translate(70.336171875, 48) scale(0.65)"></path><text x="13" y="86" class="tf">Email<tspan x="103.01" class="ty">string</tspan></text><text x="13" y="111" class="tf">Login<tspan x="103.01" class="ty">string</tspan></text><text x="13" y="136" class="tf">Name<tspan x="103.01" class="ty">string</tspan></text><text x="13" y="161" class="tf">Birthday<tspan x="103.01" class="ty">date</tspan></text></svg><svg width="146.7" height="150" x="155" y="351" id="h1016576128" class="t"><rect height="40" width="146.7" class="th"></rect><text x="13" y="25" class="tht">Friendship</text><rect height="110" width="146.7" class="t-bg"></rect><text x="13" y="61" class="tf pk">FriendshipID<tspan x="133.7" class="ty">int</tspan></text><path d="M7,14A2,2 0 0,1 5,12A2,2 0 0,1 7,10A2,2 0 0,1 9,12A2,2 0 0,1 7,14M12.65,10C11.83,7.67 9.61,6 7, 6A6, 6 0 0, 0 1, 12A6, 6 0 0, 0 7, 18C9.61, 18 11.83, 16.33 12.65, 14H17V18H21V14H23V10H12.65Z" class="i pk" transform="translate(101.02617187499999, 48) scale(0.65)"></path><text x="13" y="86" class="tf fk">UserID<tspan x="133.7" class="ty">int</tspan></text><text x="13" y="111" class="tf fk">FriendID<tspan x="133.7" class="ty">int</tspan></text><text x="13" y="136" class="tf">Status<tspan x="133.7" class="ty">bool</tspan></text></svg><svg width="146.71" height="125" x="35" y="164" id="h1242235378" class="t"><rect height="40" width="146.71" class="th"></rect><text x="13" y="25" class="tht">GenreLine</text><rect height="85" width="146.71" class="t-bg"></rect><text x="13" y="61" class="tf pk">GenreLineID<tspan x="133.71" class="ty">int</tspan></text><path d="M7,14A2,2 0 0,1 5,12A2,2 0 0,1 7,10A2,2 0 0,1 9,12A2,2 0 0,1 7,14M12.65,10C11.83,7.67 9.61,6 7, 6A6, 6 0 0, 0 1, 12A6, 6 0 0, 0 7, 18C9.61, 18 11.83, 16.33 12.65, 14H17V18H21V14H23V10H12.65Z" class="i pk" transform="translate(101.03617187500001, 48) scale(0.65)"></path><text x="13" y="86" class="tf fk">FilmID<tspan x="133.71" class="ty">int</tspan></text><text x="13" y="111" class="tf fk">GenreID<tspan x="133.71" class="ty">int</tspan></text></svg><svg width="162.04" height="100" x="332" y="159" id="h807582512" class="t"><rect height="40" width="162.04" class="th"></rect><text x="13" y="25" class="tht">Genre</text><rect height="60" width="162.04" class="t-bg"></rect><text x="13" y="61" class="tf pk">GenreID<tspan x="149.04" class="ty">int</tspan></text><path d="M7,14A2,2 0 0,1 5,12A2,2 0 0,1 7,10A2,2 0 0,1 9,12A2,2 0 0,1 7,14M12.65,10C11.83,7.67 9.61,6 7, 6A6, 6 0 0, 0 1, 12A6, 6 0 0, 0 7, 18C9.61, 18 11.83, 16.33 12.65, 14H17V18H21V14H23V10H12.65Z" class="i pk" transform="translate(116.36617187499999, 48) scale(0.65)"></path><text x="13" y="86" class="tf">Name<tspan x="149.04" class="ty">varchar(200)</tspan></text><path d="M22,18V22H18V19H15V16H12L9.74,13.74C9.19,13.91 8.61,14 8,14A6,6 0 0,1 2,8A6,6 0 0,1 8,2A6,6 0 0,1 14,8C14,8.61 13.91, 9.19 13.74, 9.74L22, 18M7, 5A2, 2 0 0, 0 5, 7A2, 2 0 0, 0 7, 9A2, 2 0 0, 0 9, 7A2, 2 0 0, 0 7, 5Z" class="i uq" transform="translate(65.01265624999999, 75.5) scale(0.5)"></path></svg><svg width="135.37" height="125" x="-158.5" y="162.5" id="h2047770625" class="t"><rect height="40" width="135.37" class="th"></rect><text x="13" y="25" class="tht">RatingMPA</text><rect height="85" width="135.37" class="t-bg"></rect><text x="13" y="61" class="tf pk">RatingID<tspan x="122.37" class="ty">int</tspan></text><path d="M7,14A2,2 0 0,1 5,12A2,2 0 0,1 7,10A2,2 0 0,1 9,12A2,2 0 0,1 7,14M12.65,10C11.83,7.67 9.61,6 7, 6A6, 6 0 0, 0 1, 12A6, 6 0 0, 0 7, 18C9.61, 18 11.83, 16.33 12.65, 14H17V18H21V14H23V10H12.65Z" class="i pk" transform="translate(89.696171875, 48) scale(0.65)"></path><text x="13" y="86" class="tf">Name<tspan x="122.37" class="ty">string</tspan></text><path d="M22,18V22H18V19H15V16H12L9.74,13.74C9.19,13.91 8.61,14 8,14A6,6 0 0,1 2,8A6,6 0 0,1 8,2A6,6 0 0,1 14,8C14,8.61 13.91, 9.19 13.74, 9.74L22, 18M7, 5A2, 2 0 0, 0 5, 7A2, 2 0 0, 0 7, 9A2, 2 0 0, 0 9, 7A2, 2 0 0, 0 7, 5Z" class="i uq" transform="translate(77.02625, 75.5) scale(0.5)"></path><text x="13" y="111" class="tf">Description<tspan x="122.37" class="ty">string</tspan></text></svg></g></g><text class="qdbd-link" x="10" y="20">www.quickdatabasediagrams.com</text></svg>